<?xml version="1.0" encoding="UTF-8"?>
<svg version="1.1" xmlns="http://www.w3.org/2000/svg" width="512" height="512">
<path d="M0 0 C0.9355925 -0.00974854 1.871185 -0.01949707 2.83512878 -0.02954102 C23.24416486 -0.1984297 42.96079539 -0.03089418 63.0078125 4.23828125 C63.93158691 4.42551758 64.85536133 4.61275391 65.80712891 4.80566406 C101.4803425 12.13655694 136.04867954 27.05718327 165.0078125 49.23828125 C165.5857959 49.67495117 166.1637793 50.11162109 166.75927734 50.56152344 C175.26586251 57.002323 183.31244993 63.84319145 191.0078125 71.23828125 C191.60239258 71.80562988 192.19697266 72.37297852 192.80957031 72.95751953 C201.15799553 80.96365501 208.80764092 89.18319073 215.69726562 98.47900391 C217.02578341 100.26240538 218.38141287 102.02237641 219.7421875 103.78125 C227.10148221 113.40694237 233.21551204 123.60687263 239.0078125 134.23828125 C239.3697168 134.89876465 239.73162109 135.55924805 240.10449219 136.23974609 C257.60985188 168.57859478 268.92626162 206.31643928 269.24609375 243.23046875 C269.25584229 244.16606125 269.26559082 245.10165375 269.27563477 246.06559753 C269.44452345 266.47463361 269.27698793 286.19126414 265.0078125 306.23828125 C264.82057617 307.16205566 264.63333984 308.08583008 264.44042969 309.03759766 C257.10953681 344.71081125 242.18891048 379.27914829 220.0078125 408.23828125 C219.57114258 408.81626465 219.13447266 409.39424805 218.68457031 409.98974609 C212.24377075 418.49633126 205.4029023 426.54291868 198.0078125 434.23828125 C197.44046387 434.83286133 196.87311523 435.42744141 196.28857422 436.04003906 C188.28243874 444.38846428 180.06290302 452.03810967 170.76708984 458.92773438 C168.98368837 460.25625216 167.22371734 461.61188162 165.46484375 462.97265625 C155.83915138 470.33195096 145.63922112 476.44598079 135.0078125 482.23828125 C134.3473291 482.60018555 133.6868457 482.96208984 133.00634766 483.33496094 C100.66749897 500.84032063 62.92965447 512.15673037 26.015625 512.4765625 C25.0800325 512.48631104 24.14444 512.49605957 23.18049622 512.50610352 C2.77146014 512.6749922 -16.94517039 512.50745668 -36.9921875 508.23828125 C-37.91596191 508.05104492 -38.83973633 507.86380859 -39.79150391 507.67089844 C-75.4647175 500.34000556 -110.03305454 485.41937923 -138.9921875 463.23828125 C-139.5701709 462.80161133 -140.1481543 462.36494141 -140.74365234 461.91503906 C-149.25023751 455.4742395 -157.29682493 448.63337105 -164.9921875 441.23828125 C-165.58676758 440.67093262 -166.18134766 440.10358398 -166.79394531 439.51904297 C-175.14237053 431.51290749 -182.79201592 423.29337177 -189.68164062 413.99755859 C-191.01015841 412.21415712 -192.36578787 410.45418609 -193.7265625 408.6953125 C-201.08585721 399.06962013 -207.19988704 388.86968987 -212.9921875 378.23828125 C-213.3540918 377.57779785 -213.71599609 376.91731445 -214.08886719 376.23681641 C-231.59422688 343.89796772 -242.91063662 306.16012322 -243.23046875 269.24609375 C-243.24021729 268.31050125 -243.24996582 267.37490875 -243.26000977 266.41096497 C-243.42889845 246.00192889 -243.26136293 226.28529836 -238.9921875 206.23828125 C-238.80495117 205.31450684 -238.61771484 204.39073242 -238.42480469 203.43896484 C-231.09391181 167.76575125 -216.17328548 133.19741421 -193.9921875 104.23828125 C-193.55551758 103.66029785 -193.11884766 103.08231445 -192.66894531 102.48681641 C-186.22814575 93.98023124 -179.3872773 85.93364382 -171.9921875 78.23828125 C-171.42483887 77.64370117 -170.85749023 77.04912109 -170.27294922 76.43652344 C-162.26681374 68.08809822 -154.04727802 60.43845283 -144.75146484 53.54882812 C-142.96806337 52.22031034 -141.20809234 50.86468088 -139.44921875 49.50390625 C-129.82352638 42.14461154 -119.62359612 36.03058171 -108.9921875 30.23828125 C-108.3317041 29.87637695 -107.6712207 29.51447266 -106.99072266 29.14160156 C-74.65187397 11.63624187 -36.91402947 0.31983213 0 0 Z " fill="#ECECEC" transform="translate(242.9921875,-0.23828125)"/>
<path d="M0 0 C7.10480086 4.95680284 13.02522088 11.67945696 19.09078789 17.81199718 C20.79906855 19.517055 22.50864826 21.22081217 24.21941948 22.92337108 C28.36150103 27.05247155 32.48956211 31.19519783 36.61119777 35.34470027 C41.41796742 40.18278535 46.24054577 45.00498547 51.06372124 49.826706 C59.67008361 58.43157032 68.26192213 67.05079056 76.8456707 75.67820811 C85.1648679 84.03970607 93.49453702 92.39058445 101.83590508 100.72996593 C102.60738948 101.50127053 102.60738948 101.50127053 103.39445943 102.28815704 C103.90791757 102.80149412 104.42137572 103.3148312 104.9503932 103.84372395 C114.46585331 113.35711257 123.97140785 122.88034438 133.47239515 132.40818555 C136.82570735 135.77052816 140.181926 139.12995281 143.53907585 142.48846316 C148.05771095 147.00936294 152.56787547 151.53860929 157.07254219 156.07342792 C158.72598518 157.7356256 160.38196415 159.39530509 162.04065895 161.05226207 C164.30523735 163.31536548 166.56036374 165.58748952 168.81332207 167.86215281 C169.47051027 168.51469521 170.12769847 169.1672376 170.80480146 169.83955401 C176.69280188 175.82143773 180.8807523 181.83055443 181.06930351 190.45677257 C180.92472113 198.47452299 178.44721019 204.65901453 172.88961601 210.47239757 C166.5556935 215.96976427 160.36778346 217.81545893 152.06930351 217.93333507 C141.90838103 215.85718504 135.12160562 209.31042771 128.02950859 202.17405772 C126.99293853 201.14919878 125.95534122 200.12537796 124.91680717 199.10250926 C122.12254883 196.34360294 119.34428442 193.56912215 116.56987786 190.79026914 C114.24782472 188.46702083 111.9184738 186.15115586 109.58928794 183.83506215 C104.09756597 178.37357041 98.6193359 172.89879966 93.1491375 167.41575694 C87.50865676 161.76255832 81.84456293 156.1338233 76.16868287 150.51618612 C71.28703814 145.68281329 66.42096146 140.83414561 61.56697196 135.97300065 C58.67139449 133.07354261 55.77013744 130.18040721 52.85349274 127.30212855 C50.11612466 124.59953946 47.39867792 121.8783992 44.69541359 119.141711 C43.70057665 118.1410885 42.69886362 117.14724881 41.68993378 116.16083789 C34.05690933 108.68636953 34.05690933 108.68636953 33.46512508 105.15692878 C33.72283745 103.26892161 33.72283745 103.26892161 34.81930351 100.26927257 C36.08888049 83.42505052 33.12168402 70.47144502 22.94039726 56.73411632 C15.20007013 47.73937153 3.48712975 42.02815383 -8.18069649 40.26927257 C-23.32422554 39.16505691 -34.82813855 42.01788424 -47.18069649 51.26927257 C-48.04694649 51.84677257 -48.91319649 52.42427257 -49.80569649 53.01927257 C-57.66702682 60.46684867 -64.6266427 72.33228039 -65.31009102 83.35643077 C-65.31121895 84.08692637 -65.31234688 84.81742198 -65.31350899 85.57005382 C-65.31544258 86.78918468 -65.31544258 86.78918468 -65.31741524 88.03294444 C-65.31354805 88.87405772 -65.30968086 89.715171 -65.30569649 90.58177257 C-65.30956367 91.41128428 -65.31343086 92.240796 -65.31741524 93.09544444 C-65.31612617 93.91206553 -65.31483711 94.72868663 -65.31350899 95.57005382 C-65.31181709 96.67087291 -65.31181709 96.67087291 -65.31009102 97.79393077 C-65.29428399 100.41371212 -65.29428399 100.41371212 -64.08522224 103.27586436 C-64.2432796 109.88694087 -69.05827965 113.22637214 -73.57888985 117.63914561 C-74.6019253 118.66647401 -75.62322624 119.69553217 -76.64291573 120.72618175 C-79.41665543 123.51930998 -82.21475474 126.2867957 -85.01840472 129.04985857 C-87.95198871 131.94827782 -90.86443406 134.86779671 -93.77971077 137.78460765 C-98.68182429 142.68297442 -103.59917989 147.56560393 -108.52664375 152.43846202 C-114.21399602 158.06301678 -119.88027713 163.70809942 -125.53484243 169.36560291 C-131.5631532 175.39662247 -137.60662223 181.41227571 -143.65459561 187.42356968 C-145.39139951 189.15187086 -147.12536462 190.88297698 -148.85871887 192.61473727 C-151.59161768 195.34359766 -154.33456475 198.06195916 -157.08539009 200.77274394 C-158.09006563 201.76580106 -159.09145776 202.76219349 -160.08917618 203.76224017 C-167.68340693 211.36747506 -174.67472103 217.17292833 -185.80569649 217.64427257 C-192.72139377 217.54242135 -198.06357396 214.96452889 -203.25882149 210.47239757 C-208.71362116 204.74256598 -211.21708561 198.58963389 -211.55569649 190.70677257 C-210.7967091 174.45882028 -193.67585858 162.60559772 -182.97171211 151.88328624 C-181.33950668 150.24480512 -179.70748763 148.60613832 -178.07563972 146.96730113 C-172.74962903 141.62039905 -167.41841724 136.27869816 -162.08694649 130.93724132 C-160.24554934 129.09179262 -158.40418496 127.24631121 -156.56285286 125.40079761 C-148.90570901 117.72681524 -141.24746692 110.05393312 -133.58553505 102.38473105 C-131.60568991 100.40297652 -129.62585029 98.42121647 -127.64602852 96.43943858 C-127.15404616 95.94697248 -126.6620638 95.45450638 -126.15517288 94.94711707 C-118.17201842 86.95564827 -110.1974313 78.95568664 -102.22634894 70.95217832 C-94.02172339 62.71445149 -85.80939327 54.48447103 -77.58996344 46.2615152 C-72.98334763 41.65255076 -68.38008626 37.04035042 -63.78489876 32.41998935 C-59.46635948 28.07816958 -55.13839491 23.7459718 -50.80306625 19.42091823 C-49.2165723 17.83491954 -47.63347991 16.24550957 -46.0541153 14.65241122 C-43.89271339 12.47327318 -41.71922927 10.30692224 -39.54239082 8.14321971 C-38.92495711 7.51481675 -38.30752339 6.88641379 -37.67137957 6.23896831 C-26.49118724 -4.7797417 -13.9144078 -8.51949582 0 0 Z " fill="#010101" transform="translate(271.18069648742676,149.73072743415833)"/>
<path d="M0 0 C2.98535077 1.46548604 5.75562981 3.09007102 8.5625 4.875 C21.1826375 12.30503766 34.81590361 14.65779286 49.33691406 11.49023438 C57.04316 9.21810527 64.02515088 5.3830909 70 0 C73.06268033 1.370801 75.20199357 2.93809422 77.59106445 5.28466797 C78.27469559 5.95231171 78.95832672 6.61995544 79.66267395 7.30783081 C80.38887436 8.02866852 81.11507477 8.74950623 81.86328125 9.4921875 C82.61465866 10.23453644 83.36603607 10.97688538 84.1401825 11.74172974 C85.72386227 13.31091757 87.30475839 14.88291904 88.88305664 16.45751953 C91.30875685 18.87127528 93.75247863 21.26575443 96.19726562 23.66015625 C97.73291624 25.18634836 99.2674604 26.71365476 100.80078125 28.2421875 C101.53710281 28.95897675 102.27342438 29.67576599 103.03205872 30.41427612 C103.69992905 31.08822418 104.36779938 31.76217224 105.0559082 32.45654297 C105.65007034 33.04563446 106.24423248 33.63472595 106.85639954 34.2416687 C108 36 108 36 107.78643799 38.09675598 C106.72691668 40.66088388 105.21906158 42.13548201 103.24609375 44.08203125 C102.0869043 45.23348633 102.0869043 45.23348633 100.90429688 46.40820312 C100.09025391 47.20162109 99.27621094 47.99503906 98.4375 48.8125 C97.65052734 49.59431641 96.86355469 50.37613281 96.05273438 51.18164062 C91.73835906 55.43910745 87.32516646 59.5265507 82.73461914 63.48364258 C80.56403705 65.38110709 78.52008766 67.38133934 76.5 69.4375 C75.8296875 70.11683594 75.159375 70.79617188 74.46875 71.49609375 C73.9840625 71.99238281 73.499375 72.48867188 73 73 C69.60310725 71.54263108 67.51162284 69.68906973 64.98828125 67.0078125 C64.22966797 66.22019531 63.47105469 65.43257813 62.68945312 64.62109375 C61.11799608 62.97087017 59.55276086 61.31469692 57.99414062 59.65234375 C52.15192783 53.61817957 46.96796374 49.76690473 38.55859375 48.46875 C37.01365234 48.48421875 37.01365234 48.48421875 35.4375 48.5 C34.40496094 48.4896875 33.37242187 48.479375 32.30859375 48.46875 C21.43004542 50.21548267 15.26695134 58.48937047 8.0703125 66.17382812 C7.21695313 67.06134766 6.36359375 67.94886719 5.484375 68.86328125 C4.71834961 69.68094971 3.95232422 70.49861816 3.16308594 71.34106445 C1 73 1 73 -0.91648865 72.79614258 C-3.35626405 71.86386588 -4.64155713 70.75141595 -6.49926758 68.9206543 C-7.16287796 68.27295578 -7.82648834 67.62525726 -8.51020813 66.95793152 C-9.21453476 66.2538063 -9.91886139 65.54968109 -10.64453125 64.82421875 C-11.37371262 64.10265091 -12.10289398 63.38108307 -12.85417175 62.63764954 C-14.3919172 61.11070505 -15.92570716 59.57976829 -17.45581055 58.04516602 C-19.80711354 55.6928887 -22.17892933 53.3627437 -24.55273438 51.03320312 C-26.04296546 49.54817721 -27.53194183 48.06189089 -29.01953125 46.57421875 C-29.73397903 45.87616623 -30.44842682 45.17811371 -31.18452454 44.45890808 C-32.1562989 43.47317558 -32.1562989 43.47317558 -33.14770508 42.4675293 C-33.72410233 41.89318649 -34.30049957 41.31884369 -34.8943634 40.72709656 C-36 39 -36 39 -35.88616943 37.01246643 C-34.82018495 34.59164496 -33.55464988 33.1938472 -31.67358398 31.33300781 C-30.9729332 30.63258362 -30.27228241 29.93215942 -29.55039978 29.21051025 C-28.4097683 28.09310455 -28.4097683 28.09310455 -27.24609375 26.953125 C-26.08292381 25.79632233 -26.08292381 25.79632233 -24.89625549 24.6161499 C-22.41695059 22.1536429 -19.92742008 19.70176866 -17.4375 17.25 C-15.7551756 15.58272091 -14.07352633 13.91476031 -12.39257812 12.24609375 C-8.26952125 8.15612098 -4.13801942 4.07483079 0 0 Z " fill="#020202" transform="translate(220,278)"/>
<path d="M0 0 C4.00130889 2.9927145 7.6468507 6.9265139 9.890625 11.4140625 C10.54265892 18.96055343 10.9101768 26.31294982 5.890625 32.4140625 C-0.80709712 38.44995437 -5.45410281 39.88902343 -14.48046875 39.82421875 C-20.57350048 39.13555531 -24.52169392 36.36315155 -28.5078125 31.8203125 C-32.66963424 26.03508511 -32.94924053 19.30477743 -32.109375 12.4140625 C-29.5764025 5.92877947 -24.78458797 1.55793673 -18.859375 -1.8984375 C-12.25217216 -3.55023821 -5.99646985 -3.38824923 0 0 Z " fill="#020202" transform="translate(267.109375,221.5859375)"/>
<path d="M0 0 C0.33 0 0.66 0 1 0 C1.34163044 3.15840974 1.29874902 4.58285704 -0.58065605 7.20706844 C-1.32722528 7.95422399 -2.07379452 8.70137953 -2.84298706 9.47117615 C-3.69519333 10.33603638 -4.5473996 11.20089661 -5.4254303 12.09196472 C-6.3821705 13.03738816 -7.33916459 13.98255474 -8.29638672 14.92749023 C-9.29597467 15.93221679 -10.29448925 16.9380122 -11.29200745 17.9447937 C-14.00626363 20.67759258 -16.73604236 23.39438045 -19.46938086 26.10807681 C-22.33259612 28.95490319 -25.1831931 31.81431695 -28.03567505 34.67189026 C-32.83402246 39.47476238 -37.6424785 44.26733133 -42.45703125 49.05395508 C-48.00762627 54.57259693 -53.54212986 60.10697738 -59.06811512 65.65025371 C-64.39497268 70.99303888 -69.73315122 76.32437488 -75.07648087 81.65068245 C-77.34385436 83.91121806 -79.60727379 86.17560397 -81.86751938 88.44326591 C-84.53911127 91.12258201 -87.22056044 93.79164539 -89.90957451 96.45347214 C-91.35271739 97.8865614 -92.78621136 99.32934738 -94.21928406 100.77250671 C-101.80531334 108.24889537 -109.62187092 115.07997753 -120.6875 115.25 C-128.96864374 115.15022718 -134.50935867 113.15058303 -140.65625 107.5625 C-142.44173356 105.48635633 -142.92009578 103.71674362 -143 101 C-143.66 101 -144.32 101 -145 101 C-145.495 98.03 -145.495 98.03 -146 95 C-145.46375 95.680625 -144.9275 96.36125 -144.375 97.0625 C-143.59125 98.031875 -142.8075 99.00125 -142 100 C-141.57589844 100.5775 -141.15179688 101.155 -140.71484375 101.75 C-136.38308591 107.34870651 -131.59739606 110.2887601 -124.55078125 111.37890625 C-115.0030735 111.84355137 -108.25249794 108.25902425 -101.29786491 102.1038456 C-97.11362095 98.27289662 -93.11783581 94.25638299 -89.11157227 90.2409668 C-88.14671558 89.27746825 -87.18164697 88.31418189 -86.21638489 87.35108948 C-83.61950571 84.75873178 -81.0257542 82.1632665 -78.43272901 79.56705451 C-75.71210419 76.84388297 -72.98902349 74.12316894 -70.26634216 71.40205383 C-65.70286284 66.84038762 -61.14148268 62.27663037 -56.58129883 57.71166992 C-51.30711731 52.43202783 -46.02931663 47.15602417 -40.74966007 41.88185757 C-36.20925176 37.34598155 -31.67078779 32.80816699 -27.13395542 28.26871425 C-24.42714069 25.56033991 -21.71965326 22.85264735 -19.0104084 20.14670372 C-16.46937878 17.60855514 -13.93079334 15.0679874 -11.3941021 12.52550316 C-10.01598932 11.14543122 -8.63540485 9.76782886 -7.25476074 8.39028931 C-6.44036026 7.573069 -5.62595978 6.75584869 -4.78688049 5.91386414 C-3.71982046 4.84623856 -3.71982046 4.84623856 -2.63120365 3.75704479 C-0.92513855 2.08427679 -0.92513855 2.08427679 0 0 Z " fill="#B4B4B4" transform="translate(207,255)"/>
<path d="M0 0 C3.37708676 3.35914686 6.71570297 6.75266869 10.03785706 10.16610718 C12.67439605 12.86957868 15.32428453 15.55980261 17.97485352 18.24951172 C19.37287403 19.6728735 20.76640238 21.1006607 22.15551758 22.53271484 C24.16629845 24.60388308 26.19257572 26.65870536 28.22265625 28.7109375 C28.84253922 29.35662689 29.46242218 30.00231628 30.10108948 30.66757202 C30.68527145 31.25213165 31.26945343 31.83669128 31.87133789 32.43896484 C32.3803212 32.95905121 32.8893045 33.47913757 33.41371155 34.01498413 C34.98497798 35.21685891 34.98497798 35.21685891 37.06608582 34.77220154 C39.78511771 33.68650672 41.25855165 32.00790141 43.265625 29.88671875 C44.07386719 29.05076172 44.88210937 28.21480469 45.71484375 27.35351562 C47.39167782 25.59012695 49.0661976 23.8245344 50.73828125 22.05664062 C56.37480271 16.23699921 61.14115742 11.84073052 69.2734375 10.43359375 C70.80871094 10.43552734 70.80871094 10.43552734 72.375 10.4375 C73.39335937 10.41558594 74.41171875 10.39367187 75.4609375 10.37109375 C85.69112782 12.18904148 92.1777464 18.51135025 99.125 25.8125 C99.98609375 26.69615234 100.8471875 27.57980469 101.734375 28.49023438 C103.83489598 30.64910316 105.92274001 32.81878105 108 35 C112.02753054 33.15234617 114.71326739 30.4725517 117.75 27.3125 C121.07261234 23.91765696 124.37120636 20.57227697 128 17.5 C133.66234336 12.68581355 138.78505581 7.28715111 144 2 C144.66 1.34 145.32 0.68 146 0 C146.25769641 2.90505702 146.3536954 4.48625216 144.67126465 6.93000793 C143.73860779 7.84601021 143.73860779 7.84601021 142.78710938 8.78051758 C142.08638306 9.48086624 141.38565674 10.1812149 140.66369629 10.90278625 C139.89811401 11.6425621 139.13253174 12.38233795 138.34375 13.14453125 C137.17845764 14.2992115 137.17845764 14.2992115 135.98962402 15.47721863 C133.50456183 17.93428254 131.00268547 20.37340146 128.5 22.8125 C126.81266577 24.47475879 125.12645315 26.13815694 123.44140625 27.80273438 C119.30719696 31.88180184 115.1590459 35.94626756 111 40 C106.1328125 38.25 106.1328125 38.25 104.9375 36 C104.628125 35.34 104.31875 34.68 104 34 C102.67592331 33.31513275 101.34090759 32.65129797 100 32 C98.29115995 30.37660195 96.62553283 28.70680947 95 27 C94.236875 26.278125 93.47375 25.55625 92.6875 24.8125 C91 23 91 23 91 21 C90.46375 20.731875 89.9275 20.46375 89.375 20.1875 C87.57492284 19.28746142 85.78495667 18.36716493 84 17.4375 C77.00117516 14.08389643 69.86693467 14.11125415 62.5793457 16.64013672 C56.96766836 19.59868313 52.76515602 24.63345894 48.4375 29.1875 C47.42004209 30.23510721 46.40117174 31.28134456 45.38085938 32.32617188 C42.90408226 34.86852049 40.44695612 37.42889754 38 40 C33.52785329 38.39178961 31.8945915 36.77174044 29 33 C27.01739574 31.31267723 25.0167658 29.64633943 23 28 C19.24830479 24.44069941 15.89108046 20.61209491 12.55078125 16.671875 C11.08649533 14.89673637 11.08649533 14.89673637 9 14 C9 13.34 9 12.68 9 12 C8.34 12 7.68 12 7 12 C5.65080468 10.34614767 4.31866272 8.678298 3 7 C2.01 6.34 1.02 5.68 0 5 C-0.1875 2.375 -0.1875 2.375 0 0 Z " fill="#AFAFAF" transform="translate(183,315)"/>
<path d="M0 0 C4.91319943 4.90034169 9.79477305 9.83197945 14.68041992 14.75976562 C24.57509362 24.73722582 34.48344694 34.70101193 44.39882946 44.65789032 C50.39553363 50.68037366 56.38744612 56.70748496 62.3684082 62.74560547 C67.59954369 68.02670618 72.83952428 73.29884307 78.09013826 78.56058073 C80.86353638 81.34046845 83.6324391 84.12451032 86.39073753 86.91938782 C88.98756853 89.55038336 91.59614374 92.16915567 94.2138443 94.77938271 C95.61826537 96.18581452 97.0102774 97.60460435 98.40174866 99.02384949 C104.51124392 105.08430813 110.66297912 109.90950295 119.25 111.6640625 C127.37662125 111.54862754 133.58765958 109.75935135 139.84765625 104.42578125 C143.84748149 100.20974924 145.5616649 95.56408576 147 90 C147.33 90 147.66 90 148 90 C148.69220027 96.50668255 146.79064165 100.7208865 143 106 C141.09910135 108.01037449 139.28994015 109.37795906 137 111 C136.278125 111.556875 135.55625 112.11375 134.8125 112.6875 C128.71568658 115.53267959 122.45072661 116.74395245 115.875 115 C106.07055201 111.28216809 99.09709265 104.52297315 91.875 97.125 C91.02035156 96.26519531 90.16570312 95.40539062 89.28515625 94.51953125 C85.58610289 90.77502101 81.95449711 87.0081124 78.5234375 83.015625 C74.18239688 77.97372026 69.46257425 73.31690507 64.75 68.625 C63.8528125 67.72394531 62.955625 66.82289063 62.03125 65.89453125 C61.17015625 65.03472656 60.3090625 64.17492187 59.421875 63.2890625 C58.64424805 62.51256348 57.86662109 61.73606445 57.06542969 60.93603516 C54.95415138 58.85075768 54.95415138 58.85075768 52 57 C52 56.34 52 55.68 52 55 C51.360625 54.731875 50.72125 54.46375 50.0625 54.1875 C48 53 48 53 47 50 C45.68763559 49.29294846 44.35107772 48.62992953 43 48 C41.38006592 46.6340332 41.38006592 46.6340332 39.79199219 45.05078125 C39.19167175 44.45676514 38.59135132 43.86274902 37.97283936 43.25073242 C37.33727112 42.61111572 36.70170288 41.97149902 36.046875 41.3125 C35.38665344 40.65419189 34.72643188 39.99588379 34.04620361 39.31762695 C32.65529499 37.92807708 31.26689992 36.53600726 29.88085938 35.14160156 C27.75090259 33.00090714 25.61045504 30.8711209 23.46875 28.7421875 C22.11914961 27.39126613 20.77016941 26.03972482 19.421875 24.6875 C18.77820984 24.0478833 18.13454468 23.4082666 17.47137451 22.74926758 C13 18.22992911 13 18.22992911 13 16 C12.34 16 11.68 16 11 16 C9.59765625 14.5390625 9.59765625 14.5390625 8.0625 12.625 C6.08013383 10.16098476 4.69300345 8.79533563 2 7 C2 6.34 2 5.68 2 5 C1.34 5 0.68 5 0 5 C0 3.35 0 1.7 0 0 Z " fill="#AEAEAE" transform="translate(304,255)"/>
<path d="M0 0 C3.88991149 2.06743407 7.45295015 4.39327545 11 7 C12.0725 7.763125 13.145 8.52625 14.25 9.3125 C22.18841223 17.07049377 29.52554111 28.81284337 30.11352539 40.19824219 C30.10567017 41.36081543 30.10567017 41.36081543 30.09765625 42.546875 C30.09282227 43.81337891 30.09282227 43.81337891 30.08789062 45.10546875 C30.07532227 46.41451172 30.07532227 46.41451172 30.0625 47.75 C30.05798828 48.63816406 30.05347656 49.52632812 30.04882812 50.44140625 C30.037074 52.62767329 30.02064249 54.81380179 30 57 C29.67 57 29.34 57 29 57 C28.97421875 55.83984375 28.9484375 54.6796875 28.921875 53.484375 C28.40771114 37.35140196 25.32204943 25.20749275 13.45703125 13.48828125 C1.1247997 2.72204736 -11.83693242 0.17000197 -27.73779297 0.82080078 C-40.91201454 1.86438794 -50.79963717 9.00864441 -59.69921875 18.2265625 C-69.23715481 29.72390477 -70.215115 42.66552125 -71 57 C-71.33 57 -71.66 57 -72 57 C-72.65374353 39.63947726 -70.64664673 25.05478916 -58.5859375 11.49609375 C-42.27131422 -3.89430211 -20.81977182 -8.62029293 0 0 Z " fill="#9E9E9E" transform="translate(277,193)"/>
<path d="M0 0 C0.33 0 0.66 0 1 0 C1.67023667 7.96836933 0.94677438 13.56401343 -4 20 C-7.90391707 24.17984839 -12.17566007 26.70730259 -17.90234375 27.30078125 C-28.05189819 27.33996872 -28.05189819 27.33996872 -33 24 C-33.78375 23.484375 -34.5675 22.96875 -35.375 22.4375 C-35.91125 21.963125 -36.4475 21.48875 -37 21 C-37 20.34 -37 19.68 -37 19 C-37.66 19 -38.32 19 -39 19 C-42.42857143 11.71428571 -42.42857143 11.71428571 -42 7 C-41.773125 7.515625 -41.54625 8.03125 -41.3125 8.5625 C-38.56644584 13.66231487 -35.64374182 18.64296088 -30.27734375 21.33203125 C-24.09284595 23.14600917 -17.26830401 23.26485212 -11.234375 20.9296875 C-5.96236493 17.73505888 -2.79869511 13.90059737 -1 8 C-0.46581209 5.30143003 -0.19669714 2.75375997 0 0 Z " fill="#A2A2A2" transform="translate(277,238)"/>
<path d="M0 0 C0.6997998 0.70125 1.39959961 1.4025 2.12060547 2.125 C4.55570771 4.56020913 7.00304905 6.98273859 9.4536438 9.40234375 C11.74640534 11.66814181 14.03367773 13.93944969 16.32080078 16.2109375 C17.52540704 17.40543745 18.73179522 18.59814304 19.93994141 19.7890625 C21.69650315 21.52130042 23.44646699 23.25997642 25.1953125 25 C26.0016362 25.79083984 26.0016362 25.79083984 26.82424927 26.59765625 C29.1457866 28.918498 30.98540169 30.97292761 32.55029297 33.875 C33.81477566 36.24394949 33.81477566 36.24394949 36.41088867 36.55859375 C39.77718619 35.83232419 41.0428968 34.53109972 43.42578125 32.0625 C44.61977539 30.84433594 44.61977539 30.84433594 45.83789062 29.6015625 C46.65451172 28.74304688 47.47113281 27.88453125 48.3125 27 C49.14845703 26.14148438 49.98441406 25.28296875 50.84570312 24.3984375 C52.90879656 22.27639854 54.95934566 20.14358973 57 18 C57.66 18.33 58.32 18.66 59 19 C52.07 25.93 45.14 32.86 38 40 C32.81482353 37.92592941 32.18152048 37.1456176 29 33 C27.01739574 31.31267723 25.0167658 29.64633943 23 28 C19.24830479 24.44069941 15.89108046 20.61209491 12.55078125 16.671875 C11.08649533 14.89673637 11.08649533 14.89673637 9 14 C9 13.34 9 12.68 9 12 C8.34 12 7.68 12 7 12 C5.65080468 10.34614767 4.31866272 8.678298 3 7 C2.01 6.34 1.02 5.68 0 5 C-0.1875 2.375 -0.1875 2.375 0 0 Z " fill="#B4B4B4" transform="translate(183,315)"/>
<path d="M0 0 C0 0.33 0 0.66 0 1 C-1.25103516 1.32871094 -1.25103516 1.32871094 -2.52734375 1.6640625 C-15.70882037 5.37843048 -26.36075285 12.18649621 -33.89453125 23.9609375 C-39.55810775 34.68177087 -40.3453364 45.04377523 -41 57 C-41.33 57 -41.66 57 -42 57 C-42.65360148 39.64324958 -40.64762344 25.06886882 -28.59765625 11.5078125 C-19.80736986 3.21184539 -11.98449515 -0.50997852 0 0 Z " fill="#A6A6A6" transform="translate(247,193)"/>
<path d="M0 0 C0.33 0 0.66 0 1 0 C1.25769641 2.90505702 1.3536954 4.48625216 -0.32873535 6.93000793 C-0.95050659 7.54067612 -1.57227783 8.1513443 -2.21289062 8.78051758 C-2.91361694 9.48086624 -3.61434326 10.1812149 -4.33630371 10.90278625 C-5.48467712 12.01245003 -5.48467712 12.01245003 -6.65625 13.14453125 C-7.43311157 13.91431808 -8.20997314 14.68410492 -9.01037598 15.47721863 C-11.49543817 17.93428254 -13.99731453 20.37340146 -16.5 22.8125 C-18.18733423 24.47475879 -19.87354685 26.13815694 -21.55859375 27.80273438 C-25.69280304 31.88180184 -29.8409541 35.94626756 -34 40 C-34.66 39.67 -35.32 39.34 -36 39 C-35.45730469 38.40832031 -34.91460937 37.81664062 -34.35546875 37.20703125 C-33.64003906 36.41683594 -32.92460937 35.62664062 -32.1875 34.8125 C-31.12595703 33.64654297 -31.12595703 33.64654297 -30.04296875 32.45703125 C-27.96814693 30.11755263 -27.96814693 30.11755263 -26.68359375 27.62109375 C-24.2878934 23.89136073 -21.1520773 21.205099 -17.875 18.25 C-16.5249731 17.01158053 -15.17601288 15.77199723 -13.828125 14.53125 C-13.17392578 13.93054688 -12.51972656 13.32984375 -11.84570312 12.7109375 C-5.13022648 6.96631135 -5.13022648 6.96631135 0 0 Z " fill="#C9C9C9" transform="translate(328,315)"/>
<path d="M0 0 C0.71929687 0.721875 1.43859375 1.44375 2.1796875 2.1875 C3.96606167 3.96892577 5.76184646 5.74100567 7.5703125 7.5 C8.41335938 8.325 9.25640625 9.15 10.125 10 C10.97320312 10.825 11.82140625 11.65 12.6953125 12.5 C15 15 15 15 16.22924805 17.22924805 C18.58983435 20.92293259 21.52121424 23.76849364 24.63671875 26.83203125 C25.27615921 27.46864182 25.91559967 28.10525238 26.57441711 28.76115417 C28.60744499 30.78303333 30.64733362 32.79782668 32.6875 34.8125 C34.07142297 36.18638633 35.45489168 37.56073039 36.83789062 38.93554688 C40.22002237 42.29568867 43.60832238 45.64949505 47 49 C44 49 44 49 42.46235657 47.83657837 C41.91830673 47.29189911 41.3742569 46.74721985 40.8137207 46.18603516 C40.19330399 45.57184723 39.57288727 44.9576593 38.93367004 44.32485962 C38.27106674 43.65304657 37.60846344 42.98123352 36.92578125 42.2890625 C35.90003242 41.26406143 35.90003242 41.26406143 34.8535614 40.21835327 C33.40845403 38.77090335 31.96704393 37.3197542 30.52905273 35.86523438 C28.31977466 33.63235238 26.09747255 31.41309369 23.87304688 29.1953125 C22.47316382 27.78985342 21.07404872 26.38362892 19.67578125 24.9765625 C19.00710526 24.30879791 18.33842926 23.64103333 17.64949036 22.95303345 C17.03853012 22.3325412 16.42756989 21.71204895 15.7980957 21.07275391 C15.25643265 20.52648346 14.71476959 19.98021301 14.1566925 19.41738892 C13 18 13 18 13 16 C12.34 16 11.68 16 11 16 C9.59765625 14.5390625 9.59765625 14.5390625 8.0625 12.625 C6.08013383 10.16098476 4.69300345 8.79533563 2 7 C2 6.34 2 5.68 2 5 C1.34 5 0.68 5 0 5 C0 3.35 0 1.7 0 0 Z " fill="#C1C1C1" transform="translate(304,255)"/>
<path d="M0 0 C0.53625 0.680625 1.0725 1.36125 1.625 2.0625 C2.40875 3.031875 3.1925 4.00125 4 5 C4.42410156 5.5775 4.84820312 6.155 5.28515625 6.75 C9.12665052 11.71505109 13.12909487 13.89952061 19 16 C19 16.66 19 17.32 19 18 C21.04190981 17.85761163 23.08352045 17.71092972 25.125 17.5625 C26.83042969 17.44068359 26.83042969 17.44068359 28.5703125 17.31640625 C31.7540478 17.02269035 34.85510907 16.56875687 38 16 C32.03544406 20.73050988 26.3811093 20.50709911 19 20 C12.99365028 18.80681942 7.99093719 15.64062464 4 11 C3.0625 8.125 3.0625 8.125 3 6 C2.34 6 1.68 6 1 6 C0.67 4.02 0.34 2.04 0 0 Z " fill="#B9B9B9" transform="translate(61,350)"/>
<path d="M0 0 C1.63195312 -0.00773437 1.63195312 -0.00773437 3.296875 -0.015625 C6.16085034 0.24198125 7.8230692 0.7655666 10.25 2.25 C8.25 3.25 8.25 3.25 6.625 2.8125 C-1.28211354 0.93976258 -8.5214164 2.8538267 -15.75 6.25 C-19.27918909 9.00861941 -22.21177094 12.16175881 -25.1875 15.5 C-26.69517097 17.16187907 -28.21426027 18.8134909 -29.74609375 20.453125 C-30.39763428 21.18176758 -31.0491748 21.91041016 -31.72045898 22.66113281 C-33.75 24.25 -33.75 24.25 -36.38696289 24.58105469 C-39.18244423 24.18941581 -40.02693676 23.42650093 -41.75 21.25 C-41.42 20.59 -41.09 19.93 -40.75 19.25 C-40.3375 19.765625 -39.925 20.28125 -39.5 20.8125 C-37.88813107 22.47593584 -37.88813107 22.47593584 -35.90722656 22.10131836 C-33.03436186 20.96758373 -31.58578569 19.32423036 -29.484375 17.06640625 C-28.67613281 16.22142578 -27.86789063 15.37644531 -27.03515625 14.50585938 C-25.35433121 12.72014464 -23.67976025 10.92852105 -22.01171875 9.13085938 C-14.94381813 1.77733044 -10.29222186 -0.04924508 0 0 Z " fill="#ABABAB" transform="translate(255.75,327.75)"/>
<path d="M0 0 C0.556875 0.28875 1.11375 0.5775 1.6875 0.875 C3.97547524 2.05239963 3.97547524 2.05239963 6.42578125 2.796875 C13.81793189 6.25178 17.21126234 16.19912866 20.0546875 23.3359375 C21.42302721 27.19216759 22.12536746 30.44561594 22.09765625 34.546875 C22.09443359 35.39121094 22.09121094 36.23554688 22.08789062 37.10546875 C22.07951172 37.97816406 22.07113281 38.85085937 22.0625 39.75 C22.05798828 40.63816406 22.05347656 41.52632812 22.04882812 42.44140625 C22.037074 44.62767329 22.02064249 46.81380179 22 49 C21.67 49 21.34 49 21 49 C20.97421875 47.83984375 20.9484375 46.6796875 20.921875 45.484375 C20.41861537 29.6935451 17.55269146 17.17903176 5.703125 5.79296875 C4.31380161 4.58346913 2.90444349 3.39626419 1.46875 2.2421875 C0.9840625 1.83226562 0.499375 1.42234375 0 1 C0 0.67 0 0.34 0 0 Z " fill="#A4A4A4" transform="translate(285,201)"/>
<path d="M0 0 C5.14829744 4.30627256 9.95752072 8.82311931 14.68359375 13.5859375 C15.38396255 14.28772125 16.08433136 14.989505 16.80592346 15.71255493 C19.01883027 17.93101136 21.22821416 20.15293815 23.4375 22.375 C24.94703314 23.88955466 26.45679657 25.40387985 27.96679688 26.91796875 C31.64719702 30.60933099 35.32471957 34.30354069 39 38 C37.09765625 38.5703125 37.09765625 38.5703125 35 39 C32.94995471 37.52396739 32.01473526 36.02752032 30.82495117 33.80541992 C28.43093283 30.1251972 25.49949097 27.29038305 22.36328125 24.23828125 C21.72384079 23.60641403 21.08440033 22.97454681 20.42558289 22.3235321 C18.39265375 20.31494887 16.35340013 18.3129815 14.3125 16.3125 C11.61543066 13.66843191 8.92491257 11.01794986 6.23828125 8.36328125 C5.61335281 7.75494949 4.98842438 7.14661774 4.34455872 6.51985168 C2.85829393 5.05078537 1.42356108 3.52990611 0 2 C0 1.34 0 0.68 0 0 Z " fill="#A5A5A5" transform="translate(319,271)"/>
<path d="M0 0 C-3.58548139 2.39032092 -5.58329146 2.3804476 -9.85546875 2.6328125 C-10.51710526 2.67437469 -11.17874176 2.71593689 -11.86042786 2.75875854 C-13.96903929 2.8892754 -16.07813854 3.00729278 -18.1875 3.125 C-19.61919057 3.21141605 -21.05083226 3.29864611 -22.48242188 3.38671875 C-25.98776372 3.60058645 -29.49365086 3.80325222 -33 4 C-25.56615419 -3.43384581 -9.4646992 -2.31028091 0 0 Z " fill="#898989" transform="translate(268,190)"/>
<path d="M0 0 C0 0.33 0 0.66 0 1 C-0.845625 1.23074219 -1.69125 1.46148437 -2.5625 1.69921875 C-8.71005671 3.46664131 -13.94502813 5.25321094 -19.2109375 8.89453125 C-22.00566506 10.62140439 -24.81359156 11.2697814 -28 12 C-23.1096586 6.63639975 -17.540121 1.85451197 -10.375 0.125 C-6.91080179 -0.00330364 -3.46608649 -0.07073646 0 0 Z " fill="#A9A9A9" transform="translate(247,193)"/>
<path d="M0 0 C0.66 0.33 1.32 0.66 2 1 C-4.93 7.93 -11.86 14.86 -19 22 C-23.94366102 20.02253559 -25.07854402 19.11167879 -28 15 C-27.34 14.67 -26.68 14.34 -26 14 C-25.608125 14.66 -25.21625 15.32 -24.8125 16 C-23.1794853 18.22163225 -23.1794853 18.22163225 -20.66333008 18.37109375 C-17.14408552 17.88074159 -16.02438888 16.60080575 -13.57421875 14.0625 C-12.77822266 13.25039063 -11.98222656 12.43828125 -11.16210938 11.6015625 C-9.93717773 10.31378906 -9.93717773 10.31378906 -8.6875 9 C-7.85154297 8.14148438 -7.01558594 7.28296875 -6.15429688 6.3984375 C-4.09120344 4.27639854 -2.04065434 2.14358973 0 0 Z " fill="#C7C7C7" transform="translate(240,333)"/>
<path d="M0 0 C0 3 0 3 -1.48120117 4.82177734 C-2.16158447 5.4864502 -2.84196777 6.15112305 -3.54296875 6.8359375 C-4.28740234 7.57070313 -5.03183594 8.30546875 -5.79882812 9.0625 C-6.58708984 9.825625 -7.37535156 10.58875 -8.1875 11.375 C-8.95642578 12.13039063 -9.72535156 12.88578125 -10.51757812 13.6640625 C-12.01000388 15.12958616 -13.50709351 16.59037861 -15.00927734 18.04589844 C-16.64969919 19.65614328 -18.22834419 21.30114315 -19.80078125 22.9765625 C-21.96630419 24.96899746 -23.11307474 25.67923053 -26 26 C-22.38964029 21.57730936 -18.71375196 17.79634407 -14.3671875 14.109375 C-9.35568954 9.64368375 -4.70938145 4.78002218 0 0 Z " fill="#AAAAAA" transform="translate(327,317)"/>
<path d="M0 0 C2.1105164 0.95107666 4.13780792 1.94621546 6.140625 3.10546875 C5.480625 3.76546875 4.820625 4.42546875 4.140625 5.10546875 C3.18027344 4.61433594 2.21992188 4.12320312 1.23046875 3.6171875 C-3.28722358 1.68103364 -7.45071392 1.76567199 -12.296875 1.91796875 C-13.12380859 1.93150391 -13.95074219 1.94503906 -14.80273438 1.95898438 C-16.8219014 1.99399883 -18.84072818 2.04779313 -20.859375 2.10546875 C-14.62231928 -2.0525684 -7.17554544 -2.24480861 0 0 Z " fill="#959595" transform="translate(264.859375,326.89453125)"/>
<path d="M0 0 C5 5 10 10 15 15 C13.68 15.33 12.36 15.66 11 16 C10.60167969 15.51789063 10.20335937 15.03578125 9.79296875 14.5390625 C9.26316406 13.90742188 8.73335938 13.27578125 8.1875 12.625 C7.66542969 11.99851562 7.14335937 11.37203125 6.60546875 10.7265625 C4.91774261 8.7778952 4.91774261 8.7778952 2 7 C2 6.34 2 5.68 2 5 C1.34 5 0.68 5 0 5 C0 3.35 0 1.7 0 0 Z " fill="#BABABA" transform="translate(304,255)"/>
<path d="M0 0 C0.53625 0.680625 1.0725 1.36125 1.625 2.0625 C2.40875 3.031875 3.1925 4.00125 4 5 C4.44730469 5.58910156 4.89460938 6.17820312 5.35546875 6.78515625 C8.84241981 11.18824994 11.67435452 13.18928054 17 15 C17 15.33 17 15.66 17 16 C9.27486932 15.9663393 9.27486932 15.9663393 6.2890625 13.703125 C4.02752879 11.06249026 3 9.5198954 3 6 C2.34 6 1.68 6 1 6 C0.67 4.02 0.34 2.04 0 0 Z " fill="#AFAFAF" transform="translate(61,350)"/>
<path d="M0 0 C0.639375 0.165 1.27875 0.33 1.9375 0.5 C9.290407 1.70047461 16.64609126 0.85974716 24 0 C23 2 23 2 20.80859375 3.10546875 C15.05471626 4.93806673 7.75488612 5.27215029 2.25 2.5 C1.5075 2.005 0.765 1.51 0 1 C0 0.67 0 0.34 0 0 Z " fill="#BBBBBB" transform="translate(244,261)"/>
<path d="M0 0 C0.33 0 0.66 0 1 0 C1.69709417 6.5526852 -0.34778717 10.61012466 -4 16 C-6.1875 18.5625 -6.1875 18.5625 -8 20 C-8.66 20 -9.32 20 -10 20 C-10 19.34 -10 18.68 -10 18 C-9.34 18 -8.68 18 -8 18 C-7.8453125 17.14728516 -7.8453125 17.14728516 -7.6875 16.27734375 C-6.63911703 12.80457517 -4.48385548 10.23129063 -2.375 7.31640625 C-0.90726674 4.84377607 -0.39922698 2.82952121 0 0 Z " fill="#B9B9B9" transform="translate(451,345)"/>
<path d="M0 0 C0.33 0 0.66 0 1 0 C1.65040326 7.73257209 1.12984414 13.85768662 -4 20 C-6.171875 21.24609375 -6.171875 21.24609375 -8 22 C-6.9604169 19.05451455 -5.90619477 16.87688063 -4 14.375 C-1.27857943 9.78260279 -0.70816854 5.23672001 0 0 Z " fill="#B8B8B8" transform="translate(277,238)"/>
<path d="M0 0 C1.81495662 0.44850658 3.62693134 0.90909571 5.4375 1.375 C6.44683594 1.63023437 7.45617187 1.88546875 8.49609375 2.1484375 C11 3 11 3 12 5 C14.58605332 5.4683265 14.58605332 5.4683265 17.5625 5.625 C18.57441406 5.69976562 19.58632813 5.77453125 20.62890625 5.8515625 C21.80259766 5.92503906 21.80259766 5.92503906 23 6 C23 6.33 23 6.66 23 7 C16.12045568 8.64510842 10.25345778 7.28254863 4.02734375 3.94140625 C2.375 2.875 2.375 2.875 0 1 C0 0.67 0 0.34 0 0 Z " fill="#B9B9B9" transform="translate(409,363)"/>
<path d="M0 0 C0 3.77910478 -0.99703962 4.46106101 -3.5 7.1875 C-4.1496875 7.90292969 -4.799375 8.61835938 -5.46875 9.35546875 C-5.9740625 9.89816406 -6.479375 10.44085938 -7 11 C-8.921875 10.62890625 -8.921875 10.62890625 -11 10 C-12.25 7.9375 -12.25 7.9375 -13 6 C-11.7315625 6.4640625 -11.7315625 6.4640625 -10.4375 6.9375 C-7.04556472 7.35489043 -7.04556472 7.35489043 -5.04296875 5.5078125 C-3.28595343 3.72574808 -1.6126389 1.91321952 0 0 Z " fill="#9F9F9F" transform="translate(300,343)"/>
<path d="M0 0 C4.52615993 3.67832017 8.39424999 7.41086363 12 12 C8.77347475 11.6823628 7.32169408 11.31796069 4.98046875 9.00390625 C4.38878906 8.19824219 3.79710937 7.39257812 3.1875 6.5625 C2.58292969 5.75941406 1.97835937 4.95632813 1.35546875 4.12890625 C0 2 0 2 0 0 Z " fill="#B0B0B0" transform="translate(202,335)"/>
<path d="M0 0 C0 0.66 0 1.32 0 2 C0.99 2.33 1.98 2.66 3 3 C0.27656092 4.36171954 -1.01449799 3.61643969 -4 3 C-6.76661851 2.73830243 -9.53790212 2.58875154 -12.3125 2.4375 C-13.05306641 2.39431641 -13.79363281 2.35113281 -14.55664062 2.30664062 C-16.37091464 2.20129568 -18.1854355 2.10021684 -20 2 C-20 1.67 -20 1.34 -20 1 C-17.4167588 0.83178895 -14.83342301 0.66537483 -12.25 0.5 C-11.52039063 0.45230469 -10.79078125 0.40460938 -10.0390625 0.35546875 C-6.68189836 0.14183103 -3.36563724 0 0 0 Z " fill="#B4B4B4" transform="translate(269,191)"/>
<path d="M0 0 C1.66666667 1.66666667 3.33333333 3.33333333 5 5 C5.763125 5.70125 6.52625 6.4025 7.3125 7.125 C9 9 9 9 9 12 C8.34 12 7.68 12 7 12 C5.65080468 10.34614767 4.31866272 8.678298 3 7 C2.01 6.34 1.02 5.68 0 5 C-0.1875 2.375 -0.1875 2.375 0 0 Z " fill="#BEBEBE" transform="translate(183,315)"/>
<path d="M0 0 C-0.33 0.99 -0.66 1.98 -1 3 C-5.3534469 4.95065425 -9.14741951 5.22148123 -13.875 5.125 C-15.02742188 5.10695313 -16.17984375 5.08890625 -17.3671875 5.0703125 C-18.23601562 5.04710937 -19.10484375 5.02390625 -20 5 C-20 4.67 -20 4.34 -20 4 C-18.55367188 3.81824219 -18.55367188 3.81824219 -17.078125 3.6328125 C-15.18320313 3.38144531 -15.18320313 3.38144531 -13.25 3.125 C-11.99703125 2.96257812 -10.7440625 2.80015625 -9.453125 2.6328125 C-6.15309036 2.02805502 -3.24050482 0 0 0 Z " fill="#9A9A9A" transform="translate(100,363)"/>
<path d="M0 0 C0.66 0.33 1.32 0.66 2 1 C1.67 1.99 1.34 2.98 1 4 C-2.61867559 5.2062252 -5.92506251 5.10816918 -9.6875 5.0625 C-10.38939453 5.05798828 -11.09128906 5.05347656 -11.81445312 5.04882812 C-13.54300538 5.03706927 -15.27151365 5.01913454 -17 5 C-17 4.67 -17 4.34 -17 4 C-15.78763672 3.94392578 -15.78763672 3.94392578 -14.55078125 3.88671875 C-13.48214844 3.82097656 -12.41351563 3.75523437 -11.3125 3.6875 C-10.25675781 3.62949219 -9.20101563 3.57148438 -8.11328125 3.51171875 C-4.76515766 2.96139982 -2.84234539 1.7770881 0 0 Z " fill="#878787" transform="translate(268,257)"/>
<path d="M0 0 C0.66 0.33 1.32 0.66 2 1 C0.7954483 3.97122753 -0.24053164 5.65527677 -3.203125 7 C-5.45586752 7.73674598 -7.70515269 8.40824692 -10 9 C-6.83047153 5.73991357 -3.60062011 2.77762123 0 0 Z " fill="#9B9B9B" transform="translate(229,196)"/>
<path d="M0 0 C0.2475 0.53625 0.495 1.0725 0.75 1.625 C2.02918438 4.1683349 2.02918438 4.1683349 4.0625 7 C5.6901836 9.52028428 6.55341928 11.09722532 7 14 C6.34 14 5.68 14 5 14 C5 13.34 5 12.68 5 12 C4.34 12 3.68 12 3 12 C-0.42857143 4.71428571 -0.42857143 4.71428571 0 0 Z " fill="#AAAAAA" transform="translate(235,245)"/>
<path d="M0 0 C0.66 0.33 1.32 0.66 2 1 C-0.64 3.64 -3.28 6.28 -6 9 C-6 5.82629722 -5.69066658 4.6205332 -4 2 C-2 0.6875 -2 0.6875 0 0 Z " fill="#BCBCBC" transform="translate(223,203)"/>
<path d="M0 0 C1.14926266 0.95421808 2.29430541 1.91352045 3.4375 2.875 C4.07558594 3.40867187 4.71367187 3.94234375 5.37109375 4.4921875 C7 6 7 6 8 8 C6.68 8 5.36 8 4 8 C0 2.88888889 0 2.88888889 0 0 Z " fill="#AAAAAA" transform="translate(311,263)"/>
<path d="M0 0 C0.66 0.33 1.32 0.66 2 1 C0.35 2.98 -1.3 4.96 -3 7 C-3.99 6.67 -4.98 6.34 -6 6 C-4.02 4.02 -2.04 2.04 0 0 Z " fill="#8A8A8A" transform="translate(307,336)"/>
</svg>
